<svg id="visual" viewBox="0 0 900 600" width="900" height="600" xmlns="http://www.w3.org/2000/svg" xmlns:xlink="http://www.w3.org/1999/xlink" version="1.1"><path d="M0 472L21.5 463.5C43 455 86 438 128.8 442.3C171.7 446.7 214.3 472.3 257.2 466.2C300 460 343 422 385.8 426.2C428.7 430.3 471.3 476.7 514.2 495.3C557 514 600 505 642.8 481.8C685.7 458.7 728.3 421.3 771.2 414.7C814 408 857 432 878.5 444L900 456L900 601L878.5 601C857 601 814 601 771.2 601C728.3 601 685.7 601 642.8 601C600 601 557 601 514.2 601C471.3 601 428.7 601 385.8 601C343 601 300 601 257.2 601C214.3 601 171.7 601 128.8 601C86 601 43 601 21.5 601L0 601Z" fill="#FFFFFF" stroke-linecap="round" stroke-linejoin="miter"></path></svg>