<svg id="visual" viewBox="0 0 900 600" width="900" height="600" xmlns="http://www.w3.org/2000/svg" xmlns:xlink="http://www.w3.org/1999/xlink" version="1.1"><path d="M0 130L16.7 127.5C33.3 125 66.7 120 100 117.3C133.3 114.7 166.7 114.3 200 117.3C233.3 120.3 266.7 126.7 300 127.7C333.3 128.7 366.7 124.3 400 124.5C433.3 124.7 466.7 129.3 500 132.8C533.3 136.3 566.7 138.7 600 134.3C633.3 130 666.7 119 700 116.8C733.3 114.7 766.7 121.3 800 125.3C833.3 129.3 866.7 130.7 883.3 131.3L900 132L900 0L883.3 0C866.7 0 833.3 0 800 0C766.7 0 733.3 0 700 0C666.7 0 633.3 0 600 0C566.7 0 533.3 0 500 0C466.7 0 433.3 0 400 0C366.7 0 333.3 0 300 0C266.7 0 233.3 0 200 0C166.7 0 133.3 0 100 0C66.7 0 33.3 0 16.7 0L0 0Z" fill="#b1bccb"></path><path d="M0 91L16.7 89C33.3 87 66.7 83 100 81.8C133.3 80.7 166.7 82.3 200 86C233.3 89.7 266.7 95.3 300 92.7C333.3 90 366.7 79 400 71.8C433.3 64.7 466.7 61.3 500 62.8C533.3 64.3 566.7 70.7 600 75.3C633.3 80 666.7 83 700 81.5C733.3 80 766.7 74 800 76.8C833.3 79.7 866.7 91.3 883.3 97.2L900 103L900 0L883.3 0C866.7 0 833.3 0 800 0C766.7 0 733.3 0 700 0C666.7 0 633.3 0 600 0C566.7 0 533.3 0 500 0C466.7 0 433.3 0 400 0C366.7 0 333.3 0 300 0C266.7 0 233.3 0 200 0C166.7 0 133.3 0 100 0C66.7 0 33.3 0 16.7 0L0 0Z" fill="#8f9caf"></path><path d="M0 27L16.7 29.3C33.3 31.7 66.7 36.3 100 39.8C133.3 43.3 166.7 45.7 200 49.7C233.3 53.7 266.7 59.3 300 58.7C333.3 58 366.7 51 400 50.2C433.3 49.3 466.7 54.7 500 58C533.3 61.3 566.7 62.7 600 62.8C633.3 63 666.7 62 700 58.8C733.3 55.7 766.7 50.3 800 45.7C833.3 41 866.7 37 883.3 35L900 33L900 0L883.3 0C866.7 0 833.3 0 800 0C766.7 0 733.3 0 700 0C666.7 0 633.3 0 600 0C566.7 0 533.3 0 500 0C466.7 0 433.3 0 400 0C366.7 0 333.3 0 300 0C266.7 0 233.3 0 200 0C166.7 0 133.3 0 100 0C66.7 0 33.3 0 16.7 0L0 0Z" fill="#6f7e94"></path></svg>